<?xml version="1.0" encoding="utf-8"?>
<!-- Generator: Adobe Illustrator 23.1.0, SVG Export Plug-In . SVG Version: 6.00 Build 0)  -->
<svg version="1.1" id="Layer_1" xmlns="http://www.w3.org/2000/svg" xmlns:xlink="http://www.w3.org/1999/xlink" x="0px" y="0px"
	 viewBox="0 0 595.28 841.89" style="enable-background:new 0 0 595.28 841.89;" xml:space="preserve">
<style type="text/css">
	.st0{fill:#FFFFFF;}
	.st1{fill:#808285;}
	.st2{fill:none;stroke:#000000;stroke-miterlimit:10;}
</style>
<g>
	<path class="st0" d="M408.5,230.68l-221.73,0c37.45-34.74,74.9-69.48,112.35-104.21l0,0C335.58,161.21,372.04,195.95,408.5,230.68z
		"/>
	<g>
		<path class="st1" d="M408.5,228.18c-1.98,0-3.96,0-5.93,0c-5.38,0-10.76,0-16.14,0c-7.96,0-15.92,0-23.88,0
			c-9.71,0-19.42,0-29.13,0c-10.64,0-21.27,0-31.91,0c-10.69,0-21.39,0-32.08,0c-10.01,0-20.02,0-30.03,0c-8.46,0-16.92,0-25.38,0
			c-6.08,0-12.16,0-18.25,0c-2.86,0-5.76-0.13-8.62,0c-0.13,0.01-0.25,0-0.38,0c0.59,1.42,1.18,2.85,1.77,4.27
			c14.64-13.58,29.28-27.16,43.91-40.74c14.58-13.52,29.15-27.04,43.73-40.57c8.23-7.64,16.47-15.28,24.7-22.91
			c-1.18,0-2.36,0-3.54,0c14.2,13.53,28.4,27.06,42.6,40.59c14.26,13.59,28.52,27.17,42.78,40.76c8,7.62,16.01,15.25,24.01,22.87
			c2.33,2.22,5.87-1.31,3.54-3.54c-14.2-13.53-28.4-27.06-42.6-40.59c-14.26-13.59-28.52-27.17-42.78-40.76
			c-8-7.62-16.01-15.25-24.01-22.87c-1-0.96-2.52-0.94-3.54,0c-14.64,13.58-29.28,27.16-43.91,40.74
			c-14.58,13.52-29.15,27.04-43.73,40.57c-8.23,7.64-16.47,15.28-24.7,22.91c-1.61,1.49-0.34,4.27,1.77,4.27c1.98,0,3.96,0,5.93,0
			c5.38,0,10.76,0,16.14,0c7.96,0,15.92,0,23.88,0c9.71,0,19.42,0,29.13,0c10.64,0,21.27,0,31.91,0c10.69,0,21.39,0,32.08,0
			c10.01,0,20.02,0,30.03,0c8.46,0,16.92,0,25.38,0c6.08,0,12.16,0,18.25,0c2.87,0,5.75,0.06,8.62,0c0.13,0,0.25,0,0.38,0
			C411.72,233.18,411.73,228.18,408.5,228.18z"/>
	</g>
</g>
<g>
	<g>
		<path class="st1" d="M377.94,258.5c-5.37,0-10.73,0-16.1,0c-12.79,0-25.59,0-38.38,0c-15.45,0-30.91,0-46.36,0
			c-13.35,0-26.7,0-40.05,0c-6.47,0-12.98-0.2-19.45,0c-0.09,0-0.18,0-0.27,0c-3.22,0-3.22,5,0,5c5.37,0,10.73,0,16.1,0
			c12.79,0,25.59,0,38.38,0c15.45,0,30.91,0,46.36,0c13.35,0,26.7,0,40.05,0c6.47,0,12.98,0.2,19.45,0c0.09,0,0.18,0,0.27,0
			C381.16,263.5,381.16,258.5,377.94,258.5L377.94,258.5z"/>
	</g>
</g>
<g>
	<g>
		<g>
			<path class="st1" d="M222.24,272.05c0,1.67,0,3.35,0,5.02c0,4.53,0,9.06,0,13.59c0,6.73,0,13.46,0,20.19c0,8.21,0,16.43,0,24.64
				c0,8.96,0,17.91,0,26.87c0,9.08,0,18.16,0,27.24c0,8.43,0,16.86,0,25.29c0,7.16,0,14.32,0,21.48c0,5.15,0,10.29,0,15.44
				c0,2.43-0.06,4.86,0,7.29c0,0.11,0,0.21,0,0.32c0,3.22,5,3.22,5,0c0-1.67,0-3.35,0-5.02c0-4.53,0-9.06,0-13.59
				c0-6.73,0-13.46,0-20.19c0-8.21,0-16.43,0-24.64c0-8.96,0-17.91,0-26.87c0-9.08,0-18.16,0-27.24c0-8.43,0-16.86,0-25.29
				c0-7.16,0-14.32,0-21.48c0-5.15,0-10.29,0-15.44c0-2.43,0.06-4.86,0-7.29c0-0.11,0-0.21,0-0.32
				C227.24,268.83,222.24,268.83,222.24,272.05L222.24,272.05z"/>
		</g>
	</g>
	<g>
		<g>
			<path class="st1" d="M248.56,272.05c0,1.67,0,3.35,0,5.02c0,4.53,0,9.06,0,13.59c0,6.73,0,13.46,0,20.19c0,8.21,0,16.43,0,24.64
				c0,8.96,0,17.91,0,26.87c0,9.08,0,18.16,0,27.24c0,8.43,0,16.86,0,25.29c0,7.16,0,14.32,0,21.48c0,5.15,0,10.29,0,15.44
				c0,2.43-0.06,4.86,0,7.29c0,0.11,0,0.21,0,0.32c0,3.22,5,3.22,5,0c0-1.67,0-3.35,0-5.02c0-4.53,0-9.06,0-13.59
				c0-6.73,0-13.46,0-20.19c0-8.21,0-16.43,0-24.64c0-8.96,0-17.91,0-26.87c0-9.08,0-18.16,0-27.24c0-8.43,0-16.86,0-25.29
				c0-7.16,0-14.32,0-21.48c0-5.15,0-10.29,0-15.44c0-2.43,0.06-4.86,0-7.29c0-0.11,0-0.21,0-0.32
				C253.56,268.83,248.56,268.83,248.56,272.05L248.56,272.05z"/>
		</g>
	</g>
	<g>
		<g>
			<path class="st1" d="M340.66,272.05c0,1.67,0,3.35,0,5.02c0,4.53,0,9.06,0,13.59c0,6.73,0,13.46,0,20.19c0,8.21,0,16.43,0,24.64
				c0,8.96,0,17.91,0,26.87c0,9.08,0,18.16,0,27.24c0,8.43,0,16.86,0,25.29c0,7.16,0,14.32,0,21.48c0,5.15,0,10.29,0,15.44
				c0,2.43-0.06,4.86,0,7.29c0,0.11,0,0.21,0,0.32c0,3.22,5,3.22,5,0c0-1.67,0-3.35,0-5.02c0-4.53,0-9.06,0-13.59
				c0-6.73,0-13.46,0-20.19c0-8.21,0-16.43,0-24.64c0-8.96,0-17.91,0-26.87c0-9.08,0-18.16,0-27.24c0-8.43,0-16.86,0-25.29
				c0-7.16,0-14.32,0-21.48c0-5.15,0-10.29,0-15.44c0-2.43,0.06-4.86,0-7.29c0-0.11,0-0.21,0-0.32
				C345.66,268.83,340.66,268.83,340.66,272.05L340.66,272.05z"/>
		</g>
	</g>
	<g>
		<g>
			<path class="st1" d="M309.61,272c0,1.67,0,3.35,0,5.02c0,4.53,0,9.06,0,13.59c0,6.73,0,13.46,0,20.19c0,8.21,0,16.43,0,24.64
				c0,8.96,0,17.91,0,26.87c0,9.08,0,18.16,0,27.24c0,8.43,0,16.86,0,25.29c0,7.16,0,14.32,0,21.48c0,5.15,0,10.29,0,15.44
				c0,2.43-0.06,4.86,0,7.29c0,0.11,0,0.21,0,0.32c0,3.22,5,3.22,5,0c0-1.67,0-3.35,0-5.02c0-4.53,0-9.06,0-13.59
				c0-6.73,0-13.46,0-20.19c0-8.21,0-16.43,0-24.64c0-8.96,0-17.91,0-26.87c0-9.08,0-18.16,0-27.24c0-8.43,0-16.86,0-25.29
				c0-7.16,0-14.32,0-21.48c0-5.15,0-10.29,0-15.44c0-2.43,0.06-4.86,0-7.29c0-0.11,0-0.21,0-0.32
				C314.61,268.78,309.61,268.78,309.61,272L309.61,272z"/>
		</g>
	</g>
	<g>
		<g>
			<path class="st1" d="M279.09,272c0,1.67,0,3.35,0,5.02c0,4.53,0,9.06,0,13.59c0,6.73,0,13.46,0,20.19c0,8.21,0,16.43,0,24.64
				c0,8.96,0,17.91,0,26.87c0,9.08,0,18.16,0,27.24c0,8.43,0,16.86,0,25.29c0,7.16,0,14.32,0,21.48c0,5.15,0,10.29,0,15.44
				c0,2.43-0.06,4.86,0,7.29c0,0.11,0,0.21,0,0.32c0,3.22,5,3.22,5,0c0-1.67,0-3.35,0-5.02c0-4.53,0-9.06,0-13.59
				c0-6.73,0-13.46,0-20.19c0-8.21,0-16.43,0-24.64c0-8.96,0-17.91,0-26.87c0-9.08,0-18.16,0-27.24c0-8.43,0-16.86,0-25.29
				c0-7.16,0-14.32,0-21.48c0-5.15,0-10.29,0-15.44c0-2.43,0.06-4.86,0-7.29c0-0.11,0-0.21,0-0.32
				C284.09,268.78,279.09,268.78,279.09,272L279.09,272z"/>
		</g>
	</g>
	<g>
		<g>
			<path class="st1" d="M368.03,272c0,1.67,0,3.35,0,5.02c0,4.53,0,9.06,0,13.59c0,6.73,0,13.46,0,20.19c0,8.21,0,16.43,0,24.64
				c0,8.96,0,17.91,0,26.87c0,9.08,0,18.16,0,27.24c0,8.43,0,16.86,0,25.29c0,7.16,0,14.32,0,21.48c0,5.15,0,10.29,0,15.44
				c0,2.43-0.06,4.86,0,7.29c0,0.11,0,0.21,0,0.32c0,3.22,5,3.22,5,0c0-1.67,0-3.35,0-5.02c0-4.53,0-9.06,0-13.59
				c0-6.73,0-13.46,0-20.19c0-8.21,0-16.43,0-24.64c0-8.96,0-17.91,0-26.87c0-9.08,0-18.16,0-27.24c0-8.43,0-16.86,0-25.29
				c0-7.16,0-14.32,0-21.48c0-5.15,0-10.29,0-15.44c0-2.43,0.06-4.86,0-7.29c0-0.11,0-0.21,0-0.32
				C373.03,268.78,368.03,268.78,368.03,272L368.03,272z"/>
		</g>
	</g>
</g>
<path class="st2" d="M260.89,613.18"/>
<g>
	<g>
		<path class="st1" d="M431.48,465.21c-2.4,0-4.81,0-7.21,0c-6.48,0-12.96,0-19.44,0c-9.61,0-19.22,0-28.82,0
			c-11.72,0-23.44,0-35.17,0c-12.79,0-25.59,0-38.38,0c-13,0-26.01,0-39.01,0c-12.04,0-24.08,0-36.12,0c-10.21,0-20.42,0-30.64,0
			c-7.34,0-14.68,0-22.03,0c-3.47,0-6.94-0.06-10.41,0c-0.15,0-0.3,0-0.46,0c-3.22,0-3.22,5,0,5c2.4,0,4.81,0,7.21,0
			c6.48,0,12.96,0,19.44,0c9.61,0,19.22,0,28.82,0c11.72,0,23.44,0,35.17,0c12.79,0,25.59,0,38.38,0c13,0,26.01,0,39.01,0
			c12.04,0,24.08,0,36.12,0c10.21,0,20.42,0,30.64,0c7.34,0,14.68,0,22.03,0c3.47,0,6.94,0.06,10.41,0c0.15,0,0.3,0,0.46,0
			C434.7,470.21,434.7,465.21,431.48,465.21L431.48,465.21z"/>
	</g>
</g>
<g>
	<g>
		<path class="st1" d="M185.77,266.67c3.04-2.29,7.69-3.65,10.85-0.78c0.57,0.52,0.99,1.07,1.37,1.72c0.18,0.31,0.34,0.64,0.5,0.96
			c0.03,0.07,0.2,0.46,0.03,0.06c0.07,0.16,0.13,0.32,0.19,0.48c0.1,0.28,0.2,0.56,0.28,0.84c0.06,0.21,0.11,0.42,0.16,0.63
			c0.05,0.2,0.19,1,0.16,0.81c0.49,3.6-0.76,6.86-3.86,8.68c-3.11,1.83-6.92,2.21-10.46,1.96c-3.59-0.25-7.2-1.37-10.11-3.54
			c-2.51-1.87-4.25-4.32-5.57-7.13c-0.32-0.69-0.32-0.68-0.6-1.46c-0.21-0.58-0.41-1.18-0.58-1.77c-0.25-0.88-0.46-1.77-0.61-2.66
			c-0.03-0.15-0.04-0.29-0.07-0.44c-0.1-0.52,0.03,0.46,0.03,0.25c0-0.27-0.05-0.54-0.07-0.81c-0.14-1.97-0.05-3.94,0.45-5.86
			c1.91-7.43,9.19-11.06,16.05-12.85c6.3-1.64,12.55-1.78,19.11-1.77c17.1,0.02,34.2,0.15,51.3,0.34
			c17.46,0.19,34.92,0.44,52.38,0.74c15.46,0.26,30.93,0.55,46.39,0.86c11.15,0.23,22.29,0.47,33.44,0.73
			c4.62,0.11,9.26,0.14,13.88,0.33c7.24,0.3,14.66,0.47,20.78,4.87c2.83,2.03,5.17,4.94,6.17,8.31c1.01,3.41,0.51,7.1-0.91,10.32
			c-1.48,3.33-3.9,6.36-6.95,8.37c-1.51,1-3.13,1.75-4.89,2.17c-0.37,0.09-0.75,0.14-1.12,0.22c0.56-0.12,0.3-0.03-0.08,0
			c-0.3,0.03-0.6,0.05-0.9,0.07c-3.06,0.17-6.35-0.26-8.87-2.28c-2.51-2.01-5.03-6.5-3.08-9.61c0.84-1.33,2.24-2.08,3.71-2.5
			c0.36-0.1,0.73-0.18,1.1-0.26c0.13-0.03,0.25-0.04,0.38-0.07c0.42-0.08-0.36,0.04,0.02-0.01c0.41-0.05,0.82-0.08,1.23-0.09
			c3.21-0.07,3.22-5.08,0-5c-3.43,0.08-7.19,1.2-9.55,3.81c-3.53,3.91-2.95,9.49-0.31,13.72c3.96,6.35,12.12,8.56,19.15,6.72
			c8.39-2.2,15.07-10.27,16.36-18.74c1.37-9.03-3.85-17.11-11.75-21.22c-6.38-3.32-13.63-3.58-20.68-3.82
			c-1.85-0.06-3.71-0.09-5.56-0.14c-9.84-0.24-19.68-0.46-29.52-0.67c-15.56-0.33-31.12-0.64-46.68-0.91
			c-18.47-0.33-36.95-0.61-55.42-0.84c-18.56-0.22-37.13-0.39-55.69-0.44c-7.4-0.02-14.73-0.16-22.02,1.32
			c-7.68,1.56-15.88,4.92-20.13,11.9c-3.34,5.49-3.51,12.39-1.5,18.37c2.47,7.36,7.85,13.25,15.42,15.44
			c7.65,2.22,18.46,1.48,23.3-5.75c4.17-6.23,1.81-16.78-5.24-19.93c-4.59-2.05-9.98-0.96-13.92,2c-1.08,0.81-1.63,2.16-0.9,3.42
			C182.97,266.83,184.69,267.48,185.77,266.67L185.77,266.67z"/>
	</g>
</g>
<g>
	<g>
		<path class="st1" d="M393.57,476.69c-1.71,0-3.42,0-5.13,0c-4.66,0-9.31,0-13.97,0c-6.89,0-13.77,0-20.66,0c-8.4,0-16.8,0-25.2,0
			c-9.2,0-18.4,0-27.6,0c-9.29,0-18.57,0-27.86,0c-8.62,0-17.24,0-25.87,0c-7.32,0-14.64,0-21.97,0c-5.27,0-10.53,0-15.8,0
			c-2.49,0-5-0.06-7.49,0c-0.11,0-0.22,0-0.32,0c-3.22,0-3.22,5,0,5c1.71,0,3.42,0,5.13,0c4.66,0,9.31,0,13.97,0
			c6.89,0,13.77,0,20.66,0c8.4,0,16.8,0,25.2,0c9.2,0,18.4,0,27.6,0c9.29,0,18.57,0,27.86,0c8.62,0,17.24,0,25.87,0
			c7.32,0,14.64,0,21.97,0c5.27,0,10.53,0,15.8,0c2.49,0,5,0.06,7.49,0c0.11,0,0.22,0,0.32,0
			C396.79,481.69,396.8,476.69,393.57,476.69L393.57,476.69z"/>
	</g>
</g>
</svg>
